<svg width="41" height="86" viewBox="0 0 41 86" fill="none" xmlns="http://www.w3.org/2000/svg">
<path opacity="0.3" d="M40.1051 79.5887C40.6785 80.2331 41 81.1019 41 82.0071C41 82.9123 40.6785 83.7811 40.1051 84.4255C39.8232 84.7429 39.4871 84.995 39.1164 85.1671C38.7457 85.3391 38.3479 85.4277 37.9461 85.4277C37.5442 85.4277 37.1464 85.3391 36.7758 85.1671C36.4051 84.995 36.069 84.7429 35.787 84.4255L0.894878 45.3559C0.321481 44.7115 0 43.8427 0 42.9375C0 42.0323 0.321481 41.1635 0.894878 40.5191L35.787 1.44951C36.069 1.13209 36.4051 0.880005 36.7758 0.707941C37.1464 0.535876 37.5442 0.447266 37.9461 0.447266C38.3479 0.447266 38.7457 0.535876 39.1164 0.707941C39.4871 0.880005 39.8232 1.13209 40.1051 1.44951C40.6785 2.09391 41 2.9627 41 3.8679C41 4.77309 40.6785 5.64188 40.1051 6.28628L8.28328 42.94L40.1051 79.5887Z" fill="white"/>
</svg>
