<svg width="41" height="86" viewBox="0 0 41 86" fill="none" xmlns="http://www.w3.org/2000/svg">
<path opacity="0.3" d="M0.894896 6.28629C0.321497 5.6419 1.39353e-05 4.7731 1.40061e-05 3.86791C1.40769e-05 2.96271 0.321498 2.09391 0.894896 1.44952C1.17686 1.13209 1.51295 0.880009 1.88361 0.707951C2.25427 0.535885 2.65209 0.44727 3.05393 0.44727C3.45577 0.44727 3.8536 0.535885 4.22426 0.707951C4.59492 0.880009 4.93101 1.13209 5.21297 1.44952L40.1051 40.5191C40.6785 41.1635 41 42.0323 41 42.9375C41 43.8427 40.6785 44.7115 40.1051 45.3559L5.21296 84.4255C4.931 84.7429 4.59491 84.995 4.22425 85.1671C3.85359 85.3391 3.45576 85.4277 3.05392 85.4277C2.65208 85.4277 2.25426 85.3391 1.8836 85.1671C1.51294 84.995 1.17685 84.7429 0.89489 84.4255C0.321491 83.7811 7.82606e-06 82.9123 7.89683e-06 82.0071C7.96761e-06 81.1019 0.321492 80.2331 0.89489 79.5887L32.7167 42.935L0.894896 6.28629Z" fill="white"/>
</svg>
