<svg width="108" height="37" viewBox="0 0 108 37" fill="none" xmlns="http://www.w3.org/2000/svg">
<path d="M59.6851 3.73713C62.197 3.15809 68.9185 2 82.5 2C83.6318 2 84.7159 2.00804 85.754 2.02312C96.4327 2.17825 102.232 3.07809 104.822 3.6282C105.958 3.86945 106.659 4.69571 106.868 5.96271C107.305 8.60397 108 13.7133 108 19.5C108 23.0925 107.732 26.4239 107.425 29.0658C106.988 32.8143 104.622 35.5161 101.255 35.977C97.51 36.4895 91.5169 37 82.5 37C68.9185 37 62.197 35.8419 59.6851 35.2629C58.9318 35.0892 58.3718 34.4328 58.2256 33.5913C57.8033 31.1618 57 25.7225 57 19.5C57 11.0589 58.4783 4.05882 58.4783 4.05882V4.05882C58.4783 4.05882 58.8499 3.92967 59.6851 3.73713Z" fill="#32B496"/>
<path d="M4.06 28.14C6.748 28.14 8.904 26.096 8.904 23.016V22.96C8.904 20.72 8.316 19.516 5.628 16.408C4.004 14.532 3.724 14.196 3.724 13.272V13.216C3.724 12.152 4.536 11.536 5.488 11.536C6.384 11.536 7.028 11.816 8.092 12.432V8.876C7.252 8.456 6.44 8.26 5.068 8.26C2.352 8.26 0.308 10.248 0.308 13.384V13.44C0.308 15.82 1.26 17.08 3.584 19.712C5.208 21.56 5.488 22.232 5.488 23.128V23.184C5.488 24.388 4.648 24.864 3.668 24.864C2.744 24.864 1.792 24.472 0.588 23.772V27.328C1.568 27.804 2.716 28.14 4.06 28.14ZM11.7095 31.64H15.0135V26.18C15.5175 27.076 16.1895 28.28 17.6455 28.28C19.4375 28.28 20.8375 26.516 20.8375 21.168V19.824C20.8375 14.42 19.4375 12.712 17.6455 12.712C16.1895 12.712 15.4895 13.972 15.0135 14.868V12.992H11.7095V31.64ZM16.3015 25.116C15.4615 25.116 14.9855 23.66 14.9855 21V19.992C14.9855 17.304 15.4615 15.876 16.3015 15.876C17.1415 15.876 17.5335 17.304 17.5335 19.992V21C17.5335 23.66 17.1415 25.116 16.3015 25.116ZM28.5036 28.28C31.1916 28.28 33.1516 25.788 33.1516 20.972V20.076C33.1516 15.26 31.1916 12.768 28.5036 12.768C25.8156 12.768 23.8556 15.26 23.8556 20.076V20.972C23.8556 25.788 25.8156 28.28 28.5036 28.28ZM28.5036 25.34C27.6636 25.34 27.1596 23.94 27.1596 21.028V20.02C27.1596 17.052 27.6636 15.708 28.5036 15.708C29.3436 15.708 29.8476 17.052 29.8476 20.02V21.028C29.8476 23.94 29.3436 25.34 28.5036 25.34ZM39.8696 28.196C40.5416 28.196 41.3256 27.972 41.8296 27.692V25.06C41.5496 25.172 41.2696 25.228 41.0176 25.228C40.4296 25.228 40.0936 24.976 40.0936 24.304V15.68H41.8576V12.992H40.0936V9.156H36.7896V12.992H35.8936V15.68H36.7896V25.424C36.7896 27.692 38.3016 28.196 39.8696 28.196ZM47.2375 28.252C48.3015 28.252 49.0855 27.636 49.6735 26.404V28H52.9775V18.032C52.9775 14.616 51.2975 12.824 48.2455 12.824C46.9575 12.824 46.1175 13.02 45.1095 13.468V16.604C45.9215 16.24 46.7615 15.904 47.6015 15.904C48.9455 15.904 49.7015 16.716 49.7015 18.256V19.152C49.0575 18.788 48.4135 18.592 47.7135 18.592C45.7255 18.592 44.3815 19.992 44.3815 23.352V23.828C44.3815 26.572 45.5855 28.252 47.2375 28.252ZM48.5815 25.48C47.9935 25.48 47.5455 25.032 47.5455 23.548V23.156C47.5455 21.728 47.9935 21.168 48.6655 21.168C48.9455 21.168 49.4495 21.336 49.7015 21.476V24.052C49.7015 25.004 49.1415 25.48 48.5815 25.48ZM65.9916 28.196C66.6636 28.196 67.4476 27.972 67.9516 27.692V25.06C67.6716 25.172 67.3916 25.228 67.1396 25.228C66.5516 25.228 66.2156 24.976 66.2156 24.304V15.68H67.9796V12.992H66.2156V9.156H62.9116V12.992H62.0156V15.68H62.9116V25.424C62.9116 27.692 64.4236 28.196 65.9916 28.196ZM73.8356 28.28C75.1516 28.28 75.9076 27.356 76.4956 26.208V28H79.7996V12.992H76.4956V23.604C76.4956 24.696 76.0196 25.312 75.3476 25.312C74.6756 25.312 74.2556 24.696 74.2556 23.604V12.992H70.9516V24.36C70.9516 26.656 71.9316 28.28 73.8356 28.28ZM89.2609 28.28C91.0529 28.28 92.4529 26.516 92.4529 21.168V19.824C92.4529 14.42 91.0529 12.712 89.2609 12.712C87.8049 12.712 87.1049 13.972 86.6289 14.868V8.26H83.3249V28H86.6289V26.18C87.1329 27.076 87.8049 28.28 89.2609 28.28ZM87.9169 25.116C87.0769 25.116 86.6009 23.66 86.6009 21V19.992C86.6009 17.304 87.0769 15.876 87.9169 15.876C88.7569 15.876 89.1489 17.304 89.1489 19.992V21C89.1489 23.66 88.7569 25.116 87.9169 25.116ZM100.539 28.28C101.799 28.28 102.695 27.888 103.843 27.132L103.591 24.108C102.611 24.78 101.967 25.2 100.959 25.2C99.867 25.2 98.887 24.388 98.691 22.036H104.207V20.3C104.207 15.372 102.555 12.768 99.951 12.768C97.459 12.768 95.387 15.344 95.387 20.16V20.888C95.387 25.732 97.739 28.28 100.539 28.28ZM98.663 19.432C98.719 16.772 99.195 15.708 99.951 15.708C100.735 15.708 101.099 16.912 101.099 19.432H98.663Z" fill="white"/>
</svg>
