<svg width="30" height="34" viewBox="0 0 30 34" fill="none" xmlns="http://www.w3.org/2000/svg">
<path d="M21.5664 12.2516C21.327 11.6126 27.9366 5.7104 24.0828 0.927804C23.181 -0.189996 20.121 6.2828 15.7758 9.2132C13.3782 10.8296 7.79997 14.2712 7.79997 16.1738V28.4894C7.79997 30.7772 16.6452 33.2 23.3664 33.2C25.8306 33.2 29.4 17.7632 29.4 15.3116C29.4 12.8492 21.8022 12.8924 21.5664 12.2516ZM5.99998 12.4226C4.81558 12.4226 0.599976 13.1426 0.599976 18.044V26.7704C0.599976 31.6682 4.81558 32.2082 5.99998 32.2082C7.18257 32.2082 4.19998 31.1786 4.19998 28.1402V16.6688C4.19998 13.4864 7.18257 12.4226 5.99998 12.4226Z" fill="white"/>
</svg>
