<svg width="27" height="31" viewBox="0 0 27 31" fill="none" xmlns="http://www.w3.org/2000/svg">
<path d="M7.48075 19.8527C7.7002 20.4385 1.6414 25.8488 5.17405 30.2329C6.0007 31.2575 8.8057 25.3241 12.7888 22.6379C14.9866 21.1562 20.1 18.0014 20.1 16.2574V4.96805C20.1 2.8709 11.9919 0.650002 5.83075 0.650002C3.5719 0.650002 0.299952 14.8004 0.299952 17.0477C0.299952 19.3049 7.2646 19.2653 7.48075 19.8527ZM21.75 19.696C22.8357 19.696 26.7 19.036 26.7 14.543V6.5438C26.7 2.05415 22.8357 1.55915 21.75 1.55915C20.6659 1.55915 23.4 2.50295 23.4 5.28815V15.8036C23.4 18.7208 20.6659 19.696 21.75 19.696Z" fill="white"/>
</svg>
